<?xml version="1.0" encoding="utf-8"?>
<!DOCTYPE svg PUBLIC "-//W3C//DTD SVG 1.1//EN" "http://www.w3.org/Graphics/SVG/1.1/DTD/svg11.dtd">
<svg version="1.1" xmlns="http://www.w3.org/2000/svg" xmlns:xlink="http://www.w3.org/1999/xlink" x="0px" y="0px" viewBox="0 0 1000 1000" enable-background="new 0 0 1000 1000" xml:space="preserve">
<g><g fill="#FFF" transform="translate(0.000000,511.000000) scale(0.100000,-0.100000)"><path d="M4555.8,4983.4C3544.5,4844.9,2885,4281.6,2667.7,3370.2c-38.5-159.6-42.3-226.9-40.4-722.9C2629.3,1562.8,2760,963,3071.5,628.4c157.7-171.1,382.6-269.2,613.3-269.2c96.1,0,101.9-3.8,123-61.5c11.5-34.6,28.8-215.4,36.5-399.9c13.5-309.6,19.2-348,67.3-451.8C4004-756,4144.4-869.4,4404-950.2c134.6-42.3,175-46.1,596-46.1c421.1,0,461.5,3.8,596,46.1c259.6,80.8,399.9,194.2,492.2,396.1c48.1,103.8,53.9,142.3,67.3,451.8c7.7,184.6,23.1,363.4,32.7,394.2c15.4,55.8,21.2,57.7,150,69.2c275,25,434.6,98.1,594.1,271.1c288.4,311.5,417.2,865.2,446.1,1899.6c9.6,371.1,5.8,492.2-21.2,673c-73.1,494.1-253.8,857.5-586.4,1176.7c-263.4,253.8-565.3,423-946,524.9C5448,5008.4,4953.9,5037.2,4555.8,4983.4z M5384.5,4723.8c936.4-115.4,1553.6-663.3,1701.6-1507.4c55.8-326.9,32.7-1128.6-50-1622.8c-67.3-405.7-165.4-653.7-323-811.4c-109.6-109.6-217.3-150-444.2-167.3c-186.5-13.5-236.5-38.5-288.4-142.3c-59.6-115.4-78.8-236.5-94.2-565.3c-13.4-361.5-36.5-424.9-180.7-523c-142.3-96.1-326.9-128.8-715.3-126.9c-480.7,0-696,63.4-811.4,238.4c-48.1,73.1-51.9,96.1-65.4,398c-15.4,332.6-36.5,463.4-98.1,584.5c-46.1,94.2-107.7,123-296.1,138.4c-86.5,5.8-196.1,25-244.2,42.3c-236.5,80.8-398,346.1-492.2,815.2c-69.2,342.2-88.4,590.3-88.4,1163.2c0,467.2,5.8,578.7,32.7,686.4c201.9,784.5,749.9,1253.6,1620.8,1390.1C4740.4,4745,5169.2,4748.8,5384.5,4723.8z"/><path d="M3731,2403.1c-257.6-90.4-409.5-305.7-411.5-582.6c0-173,42.3-282.6,161.5-411.5c121.1-130.8,261.5-192.3,444.2-194.2c128.8,0,161.5,7.7,278.8,67.3c374.9,190.3,449.9,674.9,153.8,972.9C4190.5,2420.4,3946.4,2478.1,3731,2403.1z"/><path d="M5853.7,2397.3c-388.4-153.8-515.3-632.6-257.7-959.4c53.8-67.3,113.4-113.4,205.7-159.6c255.7-125,534.5-71.1,724.9,140.4c269.2,300,178.8,767.2-186.5,953.7C6203.6,2441.5,5994.1,2453.1,5853.7,2397.3z"/><path d="M4921.2,1411c-140.4-94.2-317.3-396.1-374.9-638.3c-57.7-253.8,1.9-424.9,178.8-511.4c132.7-65.4,415.3-63.4,549.9,0c173,84.6,234.6,255.7,180.8,496.1c-55.8,250-246.1,574.9-384.6,659.5C4994.2,1464.8,5000,1464.8,4921.2,1411z"/><path d="M1814,228.5c-301.9-107.7-461.5-399.9-403.8-738.3c15.4-88.4,13.5-90.4-48.1-123.1c-130.7-65.4-225-161.5-288.4-292.2c-55.8-111.5-63.4-146.1-63.4-282.6c0-194.2,61.5-330.7,203.8-459.5c144.2-128.8,273-173,507.6-173c171.1,0,215.4,9.6,403.8,73.1l211.5,71.2l499.9-232.6l498-234.6l136.5,63.4c73.1,34.6,142.3,69.2,150,76.9c7.7,5.8-276.9,148.1-634.5,315.3L2337-1403.9l-86.5-34.6c-451.8-175-628.7-186.5-830.6-55.8c-182.7,117.3-200,403.8-30.8,559.5c67.3,63.4,171.1,100,321.1,113.4c75,7.7,136.5,21.2,136.5,30.8s-32.7,67.3-73.1,126.9c-132.7,196.1-148.1,301.9-69.2,461.5c123.1,248,426.8,265.3,640.3,32.7c94.2-101.9,153.8-217.3,225-436.5l53.8-167.3l326.9-153.8c180.7-84.6,596-278.8,922.9-430.7l594.1-276.9l150,69.2c82.7,38.5,144.2,75,136.5,82.7c-7.7,7.7-432.6,209.6-946,448c-513.4,238.4-942.1,444.1-953.7,457.6c-11.5,13.5-40.4,78.8-63.4,148C2685-129.2,2506.2,95.8,2294.7,197.7C2148.6,266.9,1956.3,278.5,1814,228.5z"/><path d="M7778.3,230.4C7513,134.3,7295.7-129.2,7190-484.9c-13.5-44.2-42.3-94.2-63.5-107.7c-23-13.5-1111.3-524.9-2418.8-1134.4L2327.4-2836.3l-119.2,48.1c-413.4,163.4-763.3,134.6-1003.7-84.6c-142.3-128.8-192.3-248-194.2-449.9c0-126.9,9.6-173,51.9-263.4c57.7-123,176.9-248,286.5-298l75-34.6l-15.4-86.5c-51.9-319.2,76.9-596,338.4-724.9c92.3-46.1,134.6-53.8,263.4-53.8c257.6,0,455.7,115.4,623,365.3c51.9,78.8,119.2,213.4,150,299.9c30.8,88.5,71.1,167.3,92.3,182.7c21.2,13.5,1107.5,523,2413,1132.5L7663-1696.2l211.5-71.2c382.6-130.7,694.1-94.2,913.3,101.9c53.8,48.1,117.3,130.7,148.1,194.2c46.1,92.3,53.8,132.7,53.8,263.4c0,246.1-103.8,426.8-313.4,548c-105.8,63.5-113.4,71.2-96.1,115.4c9.6,26.9,19.2,109.6,19.2,186.5c0,238.4-132.7,451.8-344.2,555.7C8116.7,266.9,7916.8,278.5,7778.3,230.4z M8109-27.3c76.9-28.8,157.7-109.6,200-200c61.5-132.7,42.3-244.2-78.8-430.7c-42.3-65.4-76.9-125-76.9-134.6c0-7.7,61.5-21.1,136.5-28.8c150-13.5,253.8-50,321.1-113.4c169.2-155.7,151.9-442.2-30.8-559.5c-201.9-130.7-378.8-119.2-830.6,55.8l-88.4,34.6L5144.2-2578.7L2627.4-3751.6l-67.3-200c-82.7-238.4-146.1-349.9-253.8-446.1c-96.1-88.4-182.7-126.9-284.6-126.9c-148.1,0-265.3,78.8-330.7,221.1c-63.4,138.4-42.3,251.9,80.8,436.5c42.3,61.5,75,119.2,75,126.9c0,9.6-61.5,23.1-136.5,30.8c-219.2,19.2-328.8,82.7-403.8,226.9c-76.9,151.9-25,357.6,115.4,451.8c186.5,125,421.1,105.8,857.5-71.2c55.8-23.1,167.3,28.8,2578.4,1151.7L7380.3-773.3l32.7,119.2C7543.8-181.1,7832.2,78.5,8109-27.3z"/><path d="M6499.7-2442.2l-144.2-67.3l57.7-30.8c32.7-15.4,326.9-153.8,653.7-307.6c561.4-259.6,599.9-275,653.7-253.8c351.9,138.4,361.5,142.3,549.9,142.3c173,1.9,190.4-1.9,278.8-55.8c167.3-103.8,225-286.5,144.2-461.5c-67.3-148.1-180.7-213.4-403.8-232.6c-75-7.7-136.5-21.2-136.5-28.8c0-9.6,34.6-69.2,76.9-134.6c71.1-111.5,115.4-219.2,115.4-286.5c0-71.2-46.2-180.8-101.9-244.2c-155.8-176.9-401.8-159.6-586.4,42.3c-98.1,103.8-150,201.9-225,428.8l-59.6,178.8l-919.1,428.8l-919.1,428.8l-151.9-67.3c-82.7-38.5-144.2-75-136.5-82.7c7.7-7.7,424.9-205.7,926.8-440.3c501.8-234.6,930.6-436.5,953.7-451.8c21.2-13.5,50-63.4,63.5-107.7c38.5-134.6,150-351.9,230.7-453.8c150-192.3,403.8-307.6,621-288.4c355.7,32.7,619.1,380.7,553.7,728.7c-26.9,136.5-26.9,136.5,53.8,173.1c105.7,48.1,232.7,182.7,290.3,303.8c40.4,86.5,50,134.6,50,259.6c0,194.2-61.5,330.7-203.8,459.5c-232.7,209.6-588.4,236.5-994.1,75l-121.1-48.1l-498,232.6C6897.7-2476.8,6667-2371,6659.3-2373C6651.6-2373,6578.5-2403.7,6499.7-2442.2z"/></g></g>
</svg>